# xmcd CD database file
#
# Track frame offsets:
#	150
#	5668
#	13955
#	21521
#	29998
#	47451
#	61333
#	70897
#	74261
#	84608
#	98413
#	105710
#	130875
#	153099
#	159024
#	169333
#	181235
#	189528
#	202791
#	213535
#
# Disc length: 2902 seconds
#
# Revision: 0
# Processed by: cddbd v1.5.1PL2 Copyright (c) Steve Scherf et al.
# Submitted via: CDex 1.51
#
DISCID=0e0b5414
DTITLE=Elliott Sharp - What Sebastian Dreamt
DYEAR=2005
DGENRE=Jazz
TTITLE0=On the River
TTITLE1=Jungle Birds
TTITLE2=Hunters
TTITLE3=Insect Gamelan
TTITLE4=Fugarse
TTITLE5=Nightmare
TTITLE6=Baglama
TTITLE7=She Leaves
TTITLE8=Ranae
TTITLE9=Casa Rosa
TTITLE10=Shore Night
TTITLE11=What Sebastian Dreamt
TTITLE12=Denser
TTITLE13=The Gun
TTITLE14=Ranae Two
TTITLE15=Cave
TTITLE16=Forgery
TTITLE17=Firewhistles
TTITLE18=Framed
TTITLE19=Suenos Theme
EXTD=YEAR: 2005
EXTT0=
EXTT1=
EXTT2=
EXTT3=
EXTT4=
EXTT5=
EXTT6=
EXTT7=
EXTT8=
EXTT9=
EXTT10=
EXTT11=
EXTT12=
EXTT13=
EXTT14=
EXTT15=
EXTT16=
EXTT17=
EXTT18=
EXTT19=
PLAYORDER=
